<?xml version="1.0" encoding="UTF-8"?><!DOCTYPE svg PUBLIC "-//W3C//DTD SVG 1.1//EN" "http://www.w3.org/Graphics/SVG/1.1/DTD/svg11.dtd"><svg xmlns="http://www.w3.org/2000/svg" xmlns:xlink="http://www.w3.org/1999/xlink"><symbol id="angle-down" viewBox="0 0 80 80"><path fill-rule="evenodd" clip-rule="evenodd" d="M65.8 24c-1.2-.4-2.7-.2-3.4.6L40 51.6l-22.4-27c-.7-.8-2.2-1.1-3.4-.6s-1.6 1.5-1 2.3l24.2 29.2c.6.5 1.6.8 2.6.7 1 .1 2-.2 2.6-.8l24.2-29.2c.7-.8.2-1.8-1-2.2z"/></symbol><symbol id="arrow-down" viewBox="0 0 80 80"><path d="m69.5 34.8 3.5 3.4c1.5 1.5 1.5 3.8 0 5.3L42.6 73.9c-1.5 1.5-3.8 1.5-5.3 0L7 43.5c-1.5-1.5-1.5-3.8 0-5.3l3.5-3.5c1.5-1.5 3.9-1.5 5.4.1l17.9 18.8V8.7c0-2.1 1.7-3.8 3.8-3.8h5c2.1 0 3.8 1.7 3.8 3.8v44.9l17.8-18.8c1.4-1.5 3.9-1.5 5.3 0z"/></symbol><symbol id="arrow-left" viewBox="0 0 80 80"><path d="M45.2 69.5 41.8 73c-1.5 1.5-3.8 1.5-5.3 0L6.1 42.7c-1.5-1.5-1.5-3.8 0-5.3L36.5 7c1.5-1.5 3.8-1.5 5.3 0l3.5 3.5c1.5 1.5 1.5 3.9-.1 5.4L26.3 33.7h44.9c2.1 0 3.8 1.7 3.8 3.8v5c0 2.1-1.7 3.8-3.8 3.8H26.3l18.8 17.9c1.6 1.4 1.6 3.9.1 5.3z"/></symbol><symbol id="arrow-right" viewBox="0 0 80 80"><path d="M34.8 10.5 38.2 7c1.5-1.5 3.8-1.5 5.3 0l30.4 30.4c1.5 1.5 1.5 3.8 0 5.3L43.5 73c-1.5 1.5-3.8 1.5-5.3 0l-3.5-3.5c-1.5-1.5-1.5-3.9.1-5.4l18.8-17.9H8.7c-2.1 0-3.8-1.7-3.8-3.8v-5c0-2.1 1.7-3.8 3.8-3.8h44.9L34.8 15.8c-1.5-1.4-1.5-3.9 0-5.3z"/></symbol><symbol id="note" viewBox="0 0 32 32"><path d="m28.7 7.3-4-4c-.4-.4-1-.4-1.4 0l-12 12c-.2.2-.3.4-.3.7v4c0 .6.4 1 1 1h4c.3 0 .5-.1.7-.3l12-12c.4-.4.4-1 0-1.4zM15.6 19H13v-2.6l8-8 2.6 2.6-8 8zM25 9.6 22.4 7 24 5.4 26.6 8 25 9.6z"/><path d="M27 14c-.6 0-1 .4-1 1v11H6V6h11c.6 0 1-.4 1-1s-.4-1-1-1H6c-.5 0-1 .2-1.4.6S4 5.5 4 6v20c0 .5.2 1 .6 1.4s.9.6 1.4.6h20c.5 0 1-.2 1.4-.6s.6-.9.6-1.4V15c0-.6-.4-1-1-1z"/></symbol><symbol id="refresh" viewBox="0 0 80 80"><path d="M40 4.3c-13.2 0-23.5 6.9-29.8 14.2l.2-14.4C10.5 2.1 9 .6 7 .5 5.2.5 3.5 2 3.4 3.9l-.3 23.8c0 .9.4 1.9 1.1 2.6.6.7 1.5 1 2.5 1l24.1-.5c2 0 3.5-1.5 3.5-3.5-.1-2-1.6-3.5-3.6-3.5l-15.9.3c4.8-6.3 13.9-12.9 25.3-12.9C58.7 11.2 71 27.1 71 41.9c0 14.8-12.4 30.6-30.9 30.6-18.7 0-31-15.8-31-30.5 0-2-1.5-3.5-3.5-3.5-1.9-.1-3.4 1.4-3.5 3.3v.2c0 18.1 15.3 37.5 38 37.5s38-19.4 38-37.5C78 23.9 62.7 4.3 40 4.3z"/></symbol><symbol id="settings" viewBox="0 0 80 80"><path d="M40 27c-3.6 0-6.7 1.3-9.2 3.8S27 36.4 27 40s1.3 6.7 3.8 9.2S36.4 53 40 53s6.7-1.3 9.2-3.8S53 43.6 53 40s-1.3-6.7-3.8-9.2S43.6 27 40 27zm4.9 17.9c-1.4 1.4-3 2.1-4.9 2.1s-3.6-.7-4.9-2.1c-1.4-1.4-2.1-3-2.1-4.9s.7-3.6 2.1-4.9c1.4-1.4 3-2.1 4.9-2.1s3.6.7 4.9 2.1c1.4 1.4 2.1 3 2.1 4.9s-.7 3.6-2.1 4.9z"/><path d="M69.4 42.1c0-.7.1-1.4.1-2.1s0-1.4-.1-2.2c0-.8-.1-1.5-.2-2.2L80 28l-9.3-16.4L58.9 17c-1-.9-2.2-1.8-3.7-2.6-1.4-.8-2.8-1.4-4.1-1.8L49.2 0H30.8l-2 12.7c-1.3.4-2.6 1-4 1.8s-2.6 1.6-3.7 2.5L9.3 11.6 0 28l10.8 7.9c-.1.6-.2 1.3-.2 2 0 .8-.1 1.5-.1 2.1s0 1.3.1 2.1c0 .8.1 1.4.2 2L0 52l9.3 16.4L21.1 63c1.1.9 2.3 1.7 3.7 2.5 1.4.8 2.7 1.4 4 1.9l2 12.6h18.4l2-12.6c1.3-.4 2.7-1 4.1-1.8 1.4-.8 2.6-1.7 3.7-2.6l11.8 5.4L80 52l-10.8-7.8c.1-.7.2-1.4.2-2.1zM72 53.6l-4 7.2-10.6-4.6c-1.6 1.6-3.4 3-5.3 4.1-2 1.1-4.1 2-6.2 2.5L44.4 74h-8.8l-1.4-11.2c-2.2-.5-4.3-1.4-6.2-2.5-2-1.1-3.8-2.5-5.3-4.1L12 60.8l-4-7.2 9.4-6.9c-.3-1.1-.5-2.2-.7-3.3s-.2-2.2-.2-3.3.1-2.2.2-3.3.4-2.2.7-3.3L8 26.4l4-7.2 10.6 4.6c1.5-1.7 3.3-3.1 5.2-4.2s4.1-1.9 6.3-2.4L35.6 6h8.8l1.4 11.2c2.3.3 4.5 1.1 6.4 2.2 1.9 1.2 3.7 2.6 5.2 4.4L68 19.2l4 7.2-9.4 6.9c.3 1.1.6 2.2.7 3.3.1 1.1.2 2.2.2 3.3s-.1 2.2-.2 3.3-.4 2.2-.7 3.3l9.4 7.1z"/></symbol><symbol id="sun-moon" viewBox="0 0 80 80"><path d="M40 75c-1.4 0-2.5-1.1-2.5-2.5v-65C37.5 6.1 38.6 5 40 5s2.5 1.1 2.5 2.5v65c0 1.4-1.1 2.5-2.5 2.5z"/><path d="M40 60c-11 0-20-9-20-20s9-20 20-20c1.4 0 2.5 1.1 2.5 2.5S41.4 25 40 25c-8.3 0-15 6.7-15 15s6.7 15 15 15c1.4 0 2.5 1.1 2.5 2.5S41.4 60 40 60zM22.3 24.8c-.6 0-1.3-.2-1.8-.7l-5.3-5.3c-1-1-1-2.6 0-3.5s2.6-1 3.5 0l5.3 5.3c1 1 1 2.6 0 3.5-.4.5-1 .7-1.7.7zM15 42.5H7.5C6.1 42.5 5 41.4 5 40s1.1-2.5 2.5-2.5H15c1.4 0 2.5 1.1 2.5 2.5s-1.1 2.5-2.5 2.5zm2 23c-.6 0-1.3-.2-1.8-.7-1-1-1-2.6 0-3.5l5.3-5.3c1-1 2.6-1 3.5 0s1 2.6 0 3.5l-5.3 5.3c-.4.4-1 .7-1.7.7z"/><path d="M55.2 60c-7.2 0-13.9-3.9-17.4-10.1-.7-1.2-.3-2.7.9-3.4 1.2-.7 2.7-.3 3.4.9 2.7 4.7 7.7 7.6 13 7.6 4.9 0 9.2-2.3 12-5.9-1.5.5-3.1.7-4.7.7-8.6 0-15.6-7-15.6-15.6 0-2.8.7-5.5 2.1-7.8-2.8 1.3-5.2 3.5-6.8 6.2-.7 1.2-2.2 1.6-3.4.9-1.2-.7-1.6-2.2-.9-3.4 3.7-6.6 11.1-10.6 18.6-10.1 1.1.1 2.1.9 2.3 2 .2 1.1-.2 2.2-1.2 2.7-3.5 1.8-5.7 5.4-5.7 9.4 0 5.9 4.8 10.6 10.6 10.6 3.1 0 6-1.4 8.1-3.7.7-.9 1.9-1.1 2.9-.7 1 .5 1.6 1.5 1.4 2.7-1.3 9.9-9.6 17-19.6 17z"/></symbol></svg>