<?xml version="1.0" encoding="UTF-8"?><!DOCTYPE svg PUBLIC "-//W3C//DTD SVG 1.1//EN" "http://www.w3.org/Graphics/SVG/1.1/DTD/svg11.dtd"><svg xmlns="http://www.w3.org/2000/svg" xmlns:xlink="http://www.w3.org/1999/xlink"><symbol id="arrow-right" viewBox="0 0 80 80"><path d="M34.8 10.5 38.2 7c1.5-1.5 3.8-1.5 5.3 0l30.4 30.4c1.5 1.5 1.5 3.8 0 5.3L43.5 73c-1.5 1.5-3.8 1.5-5.3 0l-3.5-3.5c-1.5-1.5-1.5-3.9.1-5.4l18.8-17.9H8.7c-2.1 0-3.8-1.7-3.8-3.8v-5c0-2.1 1.7-3.8 3.8-3.8h44.9L34.8 15.8c-1.5-1.4-1.5-3.9 0-5.3z"/></symbol><symbol id="globe" viewBox="0 0 80 80"><path d="M68.3 11.7C60.8 4.2 50.6 0 40 0c-7.9 0-15.6 2.3-22.2 6.7S6.1 17.4 3 24.7C0 32-.8 40 .8 47.8c1.5 7.8 5.4 14.9 10.9 20.5 5.6 5.6 12.7 9.4 20.5 10.9C40 80.8 48 80 55.3 77c7.3-3 13.6-8.2 18-14.7C77.7 55.6 80 47.9 80 40c0-10.6-4.2-20.8-11.7-28.3zM22.9 69.6c-5-2.9-9.2-7.1-12.2-12-3-5-4.7-10.7-4.9-16.5l3.8 1.3 4.7 7v3.7c0 .8.3 1.5.8 2l7.7 7.7v6.8zm32-27.1c.3.5.7 1 1.3 1.3l9.6 4.8 2 11.6c-3.2 4.4-7.3 7.9-12.1 10.4-5 2.4-10.3 3.7-15.7 3.7-2.5 0-4.9-.3-7.3-.8l1.6-4.9 5.2-12.9c.2-.4.2-.9.2-1.4 0-.5-.2-.9-.5-1.3l-4-6c-.3-.4-.6-.7-1-.9s-.9-.3-1.3-.3H18.7l-3.6-5.4 6.1-6.1h4.5V40h5.7v-7.8l11.1-19.3-5-2.8-2.4 4.3h-7.8l-3.1-4.7c4.2-2.2 8.7-3.5 13.4-3.8s9.4.2 13.8 1.8v9.4c0 .8.3 1.5.8 2s1.3.8 2 .8h4.2c.5 0 .9-.1 1.3-.3.4-.2.8-.5 1-.9l2.5-3.8c3.3 3 5.9 6.7 7.8 10.7H59.5c-.7 0-1.3.2-1.8.6-.5.4-.9 1-1 1.6l-2.1 12.8c-.1.8 0 1.4.3 1.9z"/></symbol><symbol id="note" viewBox="0 0 32 32"><path d="m28.7 7.3-4-4c-.4-.4-1-.4-1.4 0l-12 12c-.2.2-.3.4-.3.7v4c0 .6.4 1 1 1h4c.3 0 .5-.1.7-.3l12-12c.4-.4.4-1 0-1.4zM15.6 19H13v-2.6l8-8 2.6 2.6-8 8zM25 9.6 22.4 7 24 5.4 26.6 8 25 9.6z"/><path d="M27 14c-.6 0-1 .4-1 1v11H6V6h11c.6 0 1-.4 1-1s-.4-1-1-1H6c-.5 0-1 .2-1.4.6S4 5.5 4 6v20c0 .5.2 1 .6 1.4s.9.6 1.4.6h20c.5 0 1-.2 1.4-.6s.6-.9.6-1.4V15c0-.6-.4-1-1-1z"/></symbol><symbol id="sun-moon" viewBox="0 0 80 80"><path d="M40 75c-1.4 0-2.5-1.1-2.5-2.5v-65C37.5 6.1 38.6 5 40 5s2.5 1.1 2.5 2.5v65c0 1.4-1.1 2.5-2.5 2.5z"/><path d="M40 60c-11 0-20-9-20-20s9-20 20-20c1.4 0 2.5 1.1 2.5 2.5S41.4 25 40 25c-8.3 0-15 6.7-15 15s6.7 15 15 15c1.4 0 2.5 1.1 2.5 2.5S41.4 60 40 60zM22.3 24.8c-.6 0-1.3-.2-1.8-.7l-5.3-5.3c-1-1-1-2.6 0-3.5s2.6-1 3.5 0l5.3 5.3c1 1 1 2.6 0 3.5-.4.5-1 .7-1.7.7zM15 42.5H7.5C6.1 42.5 5 41.4 5 40s1.1-2.5 2.5-2.5H15c1.4 0 2.5 1.1 2.5 2.5s-1.1 2.5-2.5 2.5zm2 23c-.6 0-1.3-.2-1.8-.7-1-1-1-2.6 0-3.5l5.3-5.3c1-1 2.6-1 3.5 0s1 2.6 0 3.5l-5.3 5.3c-.4.4-1 .7-1.7.7z"/><path d="M55.2 60c-7.2 0-13.9-3.9-17.4-10.1-.7-1.2-.3-2.7.9-3.4 1.2-.7 2.7-.3 3.4.9 2.7 4.7 7.7 7.6 13 7.6 4.9 0 9.2-2.3 12-5.9-1.5.5-3.1.7-4.7.7-8.6 0-15.6-7-15.6-15.6 0-2.8.7-5.5 2.1-7.8-2.8 1.3-5.2 3.5-6.8 6.2-.7 1.2-2.2 1.6-3.4.9-1.2-.7-1.6-2.2-.9-3.4 3.7-6.6 11.1-10.6 18.6-10.1 1.1.1 2.1.9 2.3 2 .2 1.1-.2 2.2-1.2 2.7-3.5 1.8-5.7 5.4-5.7 9.4 0 5.9 4.8 10.6 10.6 10.6 3.1 0 6-1.4 8.1-3.7.7-.9 1.9-1.1 2.9-.7 1 .5 1.6 1.5 1.4 2.7-1.3 9.9-9.6 17-19.6 17z"/></symbol><symbol id="template" viewBox="0 0 80 80"><path fill-rule="evenodd" clip-rule="evenodd" d="M6.7 6.7H20v66.7H6.7V6.7zM0 6.7v66.7c0 1.8.7 3.5 2 4.7 1.3 1.2 2.9 2 4.7 2H20c1.8 0 3.5-.7 4.7-2 1.3-1.2 2-2.9 2-4.7V6.7c0-1.8-.7-3.5-2-4.7C23.4.7 21.8 0 20 0H6.7C4.9 0 3.2.7 2 2 .7 3.2 0 4.9 0 6.7zM40 60h33.3v13.3H40V60zm-6.7 0v13.3c0 1.8.7 3.5 2 4.7 1.3 1.2 2.9 2 4.7 2h33.3c1.8 0 3.5-.7 4.7-2s2-2.9 2-4.7V60c0-1.8-.7-3.5-2-4.7s-2.9-2-4.7-2H40c-1.8 0-3.5.7-4.7 2-1.3 1.2-2 2.9-2 4.7zm40-53.3H40V40h33.3V6.7zM33.3 40V6.7c0-1.8.7-3.5 2-4.7C36.6.7 38.2 0 40 0h33.3c1.8 0 3.5.7 4.7 2 1.2 1.3 2 2.9 2 4.7V40c0 1.8-.7 3.5-2 4.7-1.2 1.3-2.9 2-4.7 2H40c-1.8 0-3.5-.7-4.7-2-1.3-1.2-2-2.9-2-4.7z"/></symbol></svg>