<?xml version="1.0" encoding="UTF-8"?><!DOCTYPE svg PUBLIC "-//W3C//DTD SVG 1.1//EN" "http://www.w3.org/Graphics/SVG/1.1/DTD/svg11.dtd"><svg xmlns="http://www.w3.org/2000/svg" xmlns:xlink="http://www.w3.org/1999/xlink"><symbol id="angle-down" viewBox="0 0 80 80"><path fill-rule="evenodd" clip-rule="evenodd" d="M65.8 24c-1.2-.4-2.7-.2-3.4.6L40 51.6l-22.4-27c-.7-.8-2.2-1.1-3.4-.6s-1.6 1.5-1 2.3l24.2 29.2c.6.5 1.6.8 2.6.7 1 .1 2-.2 2.6-.8l24.2-29.2c.7-.8.2-1.8-1-2.2z"/></symbol><symbol id="arrow-down" viewBox="0 0 80 80"><path d="m69.5 34.8 3.5 3.4c1.5 1.5 1.5 3.8 0 5.3L42.6 73.9c-1.5 1.5-3.8 1.5-5.3 0L7 43.5c-1.5-1.5-1.5-3.8 0-5.3l3.5-3.5c1.5-1.5 3.9-1.5 5.4.1l17.9 18.8V8.7c0-2.1 1.7-3.8 3.8-3.8h5c2.1 0 3.8 1.7 3.8 3.8v44.9l17.8-18.8c1.4-1.5 3.9-1.5 5.3 0z"/></symbol><symbol id="arrow-left" viewBox="0 0 80 80"><path d="M45.2 69.5 41.8 73c-1.5 1.5-3.8 1.5-5.3 0L6.1 42.7c-1.5-1.5-1.5-3.8 0-5.3L36.5 7c1.5-1.5 3.8-1.5 5.3 0l3.5 3.5c1.5 1.5 1.5 3.9-.1 5.4L26.3 33.7h44.9c2.1 0 3.8 1.7 3.8 3.8v5c0 2.1-1.7 3.8-3.8 3.8H26.3l18.8 17.9c1.6 1.4 1.6 3.9.1 5.3z"/></symbol><symbol id="arrow-right" viewBox="0 0 80 80"><path d="M34.8 10.5 38.2 7c1.5-1.5 3.8-1.5 5.3 0l30.4 30.4c1.5 1.5 1.5 3.8 0 5.3L43.5 73c-1.5 1.5-3.8 1.5-5.3 0l-3.5-3.5c-1.5-1.5-1.5-3.9.1-5.4l18.8-17.9H8.7c-2.1 0-3.8-1.7-3.8-3.8v-5c0-2.1 1.7-3.8 3.8-3.8h44.9L34.8 15.8c-1.5-1.4-1.5-3.9 0-5.3z"/></symbol><symbol id="close" viewBox="0 0 80 80"><path fill-rule="evenodd" clip-rule="evenodd" d="M40.3 36.8 18.9 15.4l-3.8 3.8 21.3 21.3-20.1 20.3 3.8 3.8 20.2-20.2L60 64l3.8-3.8L44 40.6l20.8-20.8-3.7-3.8-20.8 20.8z"/></symbol><symbol id="facebook" viewBox="0 0 80 80"><path d="M40 1.3C18.2 1.3.5 18.6.5 40S18.2 78.7 40 78.7 79.5 61.4 79.5 40 61.8 1.3 40 1.3z"/><path fill="#FFF" d="M52.8 25.4h-3.7c-.6-.1-1.3 0-1.9.2-.6.2-1.1.5-1.6 1-.5.4-.8 1-1 1.6s-.3 1.2-.2 1.8v5.4h8l-1.3 8.4h-6.8V64h-9.1V43.7h-7.4v-8.4h7.4v-6.4c0-7.3 4.3-11.3 11-11.3 2.2 0 4.3.2 6.5.6v7.2h.1z"/></symbol><symbol id="gas" viewBox="0 0 80 80"><path d="M60.4 27.9c-5.3-9.2-18.3-26-18.9-26.7-.7-.9-2.3-.9-3.1 0-.6.7-13.6 17.5-18.9 26.6-7 12.1-9 21.8-6.5 31.4 2 7.3 8 16.8 18.7 20.2.2.1.4.1.6.1.2 0 .4 0 .6-.1.1 0 .1 0 .2-.1.1 0 .2-.1.3-.2.1 0 .1-.1.2-.1l.3-.3c0-.1.1-.1.1-.2s.1-.1.1-.2v-.1c0-.1.1-.1.1-.1v-1c0-.1-.1-.2-.1-.4 0-.1-.1-.2-.2-.3-.1-.1-.1-.2-.2-.3-.1-.1-.2-.2-.3-.2-.1 0-.1-.1-.2-.2-3-1.5-5.4-4.7-6.4-8.6-1.1-4.1-.5-8.4 1.4-12.4C29.4 63 35 64 35.3 64c.6.1 1.2-.1 1.7-.6.4-.4.6-1.1.5-1.7-.9-5-1.1-10-.7-14.9 1-7 3.9-10.7 6.1-12.6.3 3.7 1.9 9.8 7.4 17.8 3.3 4.7 4.3 10.1 3 15.1-1 3.9-3.4 7.2-6.4 8.6-.1 0-.1.1-.2.2s-.2.1-.3.2c-.1.1-.2.2-.2.3-.1.1-.1.2-.2.3 0 .2 0 .3-.1.4 0 .1 0 .2-.1.4v.7l.1.1v.1c.1.1.1.2.2.3l.1.1c.1.2.3.3.5.4.1 0 .1.1.2.1.1.1.3.1.4.1h1c10.8-3.4 16.8-13 18.6-20.1 2.6-9.6.6-19.3-6.5-31.4zm2.8 30.4c-.8 3-2.9 7.5-6.5 11.4.2-.5.3-1 .5-1.5 1.6-6.1.3-12.6-3.6-18.3-8.2-11.8-6.7-18.6-6.7-18.7.2-.7 0-1.4-.6-1.9-.5-.5-1.3-.6-2-.4-.4.1-9.3 3.5-11.3 17.5-.3 3.7-.3 7.5.1 11.2-.9-1.7-1.6-4.6-1.1-9.3v-.1c0-.2 0-.5-.1-.7 0-.1-.1-.2-.1-.2-.1-.1-.1-.3-.2-.4-.1-.1-.2-.2-.4-.3-.1 0-.1-.1-.2-.2-.2-.1-.4-.2-.5-.2-.1 0-.1 0-.2-.1h-.1c-.2 0-.4 0-.7.1-.5.1-1 .5-1.3 1-.5.9-1.1 1.8-1.8 2.7-3.9 5.7-5.2 12.2-3.6 18.3.1.5.3 1.1.5 1.6-3.7-3.8-5.8-8.4-6.6-11.5-2.3-8.5-.4-17.3 6.1-28.5C27 22.7 36.3 10.4 40 5.6c3.7 4.8 13 17.1 17.1 24.2 6.4 11.2 8.3 20 6.1 28.5z"/></symbol><symbol id="instagram" viewBox="0 0 80 80"><path d="M40 .5C18.2.5.5 18.2.5 40S18.2 79.5 40 79.5 79.5 61.8 79.5 40 61.8.5 40 .5z"/><path fill="#FFF" d="M60.6 31.4c.1-3.2-1.1-6.4-3.3-8.7-2.4-2.2-5.5-3.4-8.7-3.3-3.4-.2-13.7-.2-17.1 0-3.2-.1-6.4 1.1-8.7 3.3-2.2 2.4-3.4 5.5-3.3 8.7-.2 3.4-.2 13.7 0 17.1-.1 3.2 1.1 6.4 3.3 8.7 2.4 2.2 5.5 3.4 8.7 3.3 3.4.2 13.7.2 17.1 0 3.2.1 6.4-1.1 8.7-3.3 2.2-2.4 3.4-5.5 3.3-8.7.2-3.4.2-13.6 0-17.1zm-4.4 20.8c-.4.9-.9 1.7-1.6 2.4-.7.7-1.5 1.2-2.4 1.6-2.7 1-9.2.8-12.2.8s-9.5.2-12.2-.8c-.9-.4-1.7-.9-2.4-1.6-.7-.7-1.2-1.5-1.6-2.4-1-2.7-.8-9.2-.8-12.2s-.2-9.5.9-12.2c.3-.9.8-1.7 1.5-2.4s1.5-1.2 2.4-1.6c2.7-1 9.2-.8 12.2-.8s9.5-.2 12.2.8c.9.4 1.7.9 2.4 1.6.7.7 1.2 1.5 1.6 2.4 1 2.7.8 9.2.8 12.2s.2 9.5-.8 12.2z"/><path fill="#FFF" d="M53.5 28.9c0 .5-.1 1-.4 1.4-.3.4-.7.7-1.1.9s-1 .2-1.4.1c-.5-.1-.9-.3-1.3-.7-.3-.4-.6-.8-.7-1.3-.1-.5 0-1 .1-1.4.2-.5.5-.8.9-1.1.4-.3.9-.4 1.4-.4.3 0 .7.1 1 .2.3.1.6.3.8.5.2.2.4.5.5.8.1.3.2.6.2 1zM49.9 36c-.5-1.3-1.3-2.5-2.3-3.5s-2.2-1.8-3.5-2.3c-1.3-.5-2.7-.8-4.1-.8-2.1 0-4.1.6-5.9 1.8-1.7 1.2-3.1 2.9-3.9 4.8s-1 4-.6 6.1c.4 2 1.4 3.9 2.9 5.4 1.4 1.5 3.3 2.5 5.4 2.9 2 .4 4.2.2 6.1-.6 2-.8 3.6-2.1 4.8-3.9 1.2-1.8 1.8-3.8 1.9-5.8 0-1.4-.3-2.8-.8-4.1zM45 44.9c-1.3 1.3-3 2-4.9 2-1.4 0-2.7-.4-3.8-1.2-1.1-.8-2-1.8-2.5-3.1s-.7-2.7-.4-4c.3-1.3.9-2.6 1.9-3.5 1-1 2.2-1.6 3.5-1.9s2.7-.1 4 .4c1.1.5 2.2 1.4 3 2.6.8 1.1 1.2 2.5 1.2 3.8 0 1.8-.7 3.6-2 4.9z"/></symbol><symbol id="light" viewBox="0 0 80 80"><path d="M58 41.9v-3.8c0-1.4-.5-2.8-1.4-3.9-.2-.3-.5-.6-.8-.9.3-.4.6-.8.8-1.2.7-1.3 1.1-2.7 1.1-4.1 0-1.4-.3-2.9-.9-4.2-.3-.6-.7-1.2-1.1-1.8 1.3-1.8 2-4.3 1.5-6.5-.4-2-1.5-3.6-3.1-4.6 1-2.7.7-5.6-.9-7.8C51.5.8 48.9 0 46.1.9L28.4 6.6c-2.7.9-4.5 3.4-4.8 6.5-.2 2.2.5 4.3 1.9 5.8-1.1 1-1.9 2.3-2.3 3.8-.6 2.3-.2 4.8 1.2 7.1-.5.4-.9.9-1.2 1.4-.8 1.2-1.2 2.7-1.2 4.1v6.5c-.9.1-1.7.9-1.7 1.9v8.1c0 3.8 1.5 7.4 4.3 10 1.5 1.5 3.2 2.5 5.1 3.2l-.7 1.5c-.4.8-.2 1.7.4 2.3l.7.7-1.1 2.1c-.4.8-.2 1.8.5 2.3l5.8 5.1c.4.3.8.5 1.3.5h6.9c.5 0 .9-.2 1.3-.5l5.8-5.1c.7-.6.9-1.5.5-2.3L50 69.5l.7-.7c.6-.6.7-1.5.4-2.3l-.7-1.5c1.9-.7 3.6-1.7 5.1-3.2 2.7-2.7 4.2-6.2 4.3-10v-8.1c-.1-.9-.9-1.7-1.8-1.8zm-3.9-.1h-6.2V39c0-.6-.2-1.2-.5-1.8l5.1-1.5c.4.2.7.5 1 .8.4.5.6 1.1.6 1.6v3.7zm-10.5-3.6c0 .1.1.1 0 0 .2.4.3.7.3.9v2.7H36V41c0-.2.1-.4.2-.5.1-.1.3-.2.7-.3l6.7-2zM27.5 13.4c.1-1.5.9-2.7 2.1-3.1l17.7-5.7c1.2-.4 2.1-.1 2.8.8.8 1.1 1 3.1.1 4.9l-21 6.7c-1.7-1.2-1.7-3-1.7-3.6zM27 23.7c.3-1.3 1.3-2.3 2.6-2.7l21.8-7.1c1.1.4 1.8 1.1 2 2.3.3 1.5-.4 3.3-1.5 4.1l-24 7.8c-.9-1.5-1.3-3-.9-4.4zm-.6 9.7c.4-.5.9-1 1.5-1.2l24.5-8c.3.4.7.8.9 1.2.4.7.5 1.6.5 2.4 0 .8-.2 1.6-.6 2.4-.4.7-.9 1.2-1.5 1.7L36 36.4c-1.1.2-2.1.8-2.8 1.6-.7.8-1.1 1.9-1.1 3v.8h-6.2v-6.6c0-.6.2-1.3.5-1.8zM46.9 67l-.7.7c-.6.6-.7 1.5-.4 2.3l1 2-4.1 3.6h-5.5L33.1 72l1-2c.4-.8.2-1.7-.4-2.3l-.6-.7.5-1.1h11.7c.3 0 .7 0 1-.1l.6 1.2zm8.9-15.2c0 2.8-1.1 5.3-3.1 7.3-1.9 1.9-4.5 3-7.3 3H34.5c-2.7 0-5.3-1.1-7.3-3s-3.1-4.5-3.1-7.3v-6.1h31.6v6.1z"/></symbol><symbol id="minus" viewBox="0 0 80 80"><path d="M26.9 51H53c6 0 11-5 11-11s-5-11-11-11H26.9c-6 0-10.9 5-10.9 11s4.9 11 10.9 11z"/></symbol><symbol id="play" viewBox="0 0 80 80"><path d="M40 79.5c-2.6 0-5.2-.3-7.7-.8-7.7-1.5-14.7-5.3-20.2-10.8-5.6-5.5-9.3-12.5-10.8-20.2C-.3 40 .5 32.1 3.5 24.9c3-7.2 8-13.4 14.5-17.7C24.6 2.8 32.2.5 40 .5c10.5 0 20.5 4.1 27.9 11.6 7.5 7.5 11.6 17.4 11.6 27.9 0 7.8-2.3 15.4-6.7 21.9-4.4 6.5-10.5 11.5-17.7 14.5-4.8 2.1-9.9 3.1-15.1 3.1zm0-75.8c-7.2 0-14.2 2.1-20.2 6.1-6 4-10.6 9.6-13.4 16.3-2.7 6.7-3.4 13.9-2 21s4.8 13.5 9.9 18.6c5.1 5.1 11.5 8.5 18.6 9.9 7.1 1.4 14.3.7 21-2.1 6.7-2.8 12.3-7.4 16.3-13.4s6.1-13 6.1-20.2c0-9.7-3.8-18.8-10.6-25.7C58.8 7.5 49.7 3.7 40 3.7z"/><path d="M32.4 56.8c-.3 0-.5-.1-.8-.2-.5-.3-.8-.8-.8-1.4V24.8c0-.6.3-1.1.8-1.4.5-.3 1.2-.2 1.6.1L56 38.7c.4.3.7.8.7 1.3s-.3 1-.7 1.3L33.3 56.5c-.3.2-.6.3-.9.3zm1.6-29v24.3L52.3 40 34 27.8z"/></symbol><symbol id="plus" viewBox="0 0 80 80"><path d="M29.1 68.5c0 6 4.9 11 10.9 11s10.9-5 10.9-11V50.7H69c5.8 0 10.6-4.8 10.6-10.7S74.9 29.3 69 29.3H50.9V11.5c0-6-4.9-11-10.9-11s-10.9 5-10.9 11v17.8h-18C5.2 29.3.5 34.1.5 40s4.7 10.7 10.6 10.7h18.1v17.8z"/></symbol><symbol id="refresh" viewBox="0 0 80 80"><path d="M40 4.3c-13.2 0-23.5 6.9-29.8 14.2l.2-14.4C10.5 2.1 9 .6 7 .5 5.2.5 3.5 2 3.4 3.9l-.3 23.8c0 .9.4 1.9 1.1 2.6.6.7 1.5 1 2.5 1l24.1-.5c2 0 3.5-1.5 3.5-3.5-.1-2-1.6-3.5-3.6-3.5l-15.9.3c4.8-6.3 13.9-12.9 25.3-12.9C58.7 11.2 71 27.1 71 41.9c0 14.8-12.4 30.6-30.9 30.6-18.7 0-31-15.8-31-30.5 0-2-1.5-3.5-3.5-3.5-1.9-.1-3.4 1.4-3.5 3.3v.2c0 18.1 15.3 37.5 38 37.5s38-19.4 38-37.5C78 23.9 62.7 4.3 40 4.3z"/></symbol><symbol id="search" viewBox="0 0 80 80"><path d="M77 72.4 62.3 57.8c.7-.9 1.5-1.8 2.1-2.7 3.8-5.6 5.7-12.2 5.7-18.9 0-9.1-3.5-17.6-10-24.1-6.4-6.4-15-10-24.1-10-6.8 0-13.3 2-18.9 5.7s-10 9-12.5 15.3c-2.6 6.2-3.3 13-1.9 19.7C4 49.4 7.2 55.5 12 60.2s10.8 8 17.4 9.3c2.2.4 4.4.7 6.7.7 4.4 0 8.8-.9 13-2.6 3.2-1.3 6.1-3.1 8.7-5.2L72.4 77c.6.6 1.4.9 2.3.9.8 0 1.6-.3 2.3-.9 1.2-1.3 1.2-3.3 0-4.6zM46.7 61.7c-5.1 2.1-10.6 2.6-16 1.6-5.4-1.1-10.3-3.7-14.2-7.6S10.1 46.9 9 41.5s-.5-10.9 1.6-16 5.6-9.4 10.2-12.4 9.9-4.7 15.4-4.7c7.4 0 14.3 2.9 19.5 8.1 5.2 5.2 8.1 12.2 8.1 19.5 0 5.5-1.6 10.8-4.7 15.4-3 4.7-7.3 8.2-12.4 10.3z"/></symbol><symbol id="user-circle" viewBox="0 0 80 80"><path fill-rule="evenodd" clip-rule="evenodd" d="M40 44c-5.9 0-10.8-4.9-10.8-10.9S34 22.2 40 22.2s10.8 4.9 10.8 10.9S45.9 44 40 44zm0-26.9c-8.8 0-15.8 7.2-15.8 16s7.1 16 15.8 16c8.8 0 15.8-7.2 15.8-16s-7-16-15.8-16zM63.8 63c-.1-.2-.3-.5-.4-.7l-.6-.9c-.2-.3-.4-.6-.6-.8-.2-.3-.5-.6-.8-.8l-.7-.7c-.3-.2-.6-.5-.9-.7-.3-.2-.5-.4-.8-.6-.3-.2-.6-.4-.9-.5-.3-.2-.7-.3-1-.5-.3-.1-.6-.3-.9-.4-.4-.1-.8-.2-1.3-.3-.3-.1-.5-.1-.8-.2-.7-.1-1.4-.2-2.2-.2H28.2c-5.1 0-9.6 2.8-12 7.2C10.5 57 7 48.9 7 40 7 21.7 21.8 6.7 40 6.7S73 21.6 73 40c0 8.9-3.5 17-9.2 23zM40 73.3c-7.4 0-14.3-2.5-19.8-6.8 1.2-3.4 4.4-5.7 8-5.7h23.6c.5 0 .9 0 1.4.1.2 0 .3.1.5.1.3.1.5.1.8.2.2.1.4.2.6.2l.6.3.6.3c.2.1.3.2.5.3.2.1.4.3.6.5.1.1.3.2.4.4.2.2.4.4.5.6.1.1.2.3.3.4.2.2.3.4.5.7.1.2.2.3.3.5.1.2.3.5.4.7 0 .1.1.2.1.4-5.6 4.2-12.5 6.8-19.9 6.8zm0-71.7C19 1.6 2 18.8 2 40s17 38.4 38 38.4S78 61.2 78 40 61 1.6 40 1.6z"/></symbol><symbol id="user" viewBox="0 0 80 80"><path d="M70.7 79.5c-2.7 0-5-2.2-5-5v-7.7c0-1.4-.3-2.7-.8-4-.5-1.3-1.3-2.4-2.3-3.4-1-1-2.1-1.7-3.4-2.3-1.3-.5-2.6-.8-4-.8H24.6c-2.7 0-5.4 1.1-7.4 3-2 2-3 4.6-3 7.4v7.7c0 2.7-2.2 5-5 5s-5-2.2-5-5v-7.7c0-5.4 2.1-10.5 6-14.4 3.8-3.8 9-6 14.4-6h30.7c2.7 0 5.3.5 7.8 1.5s4.7 2.5 6.6 4.4c1.9 1.9 3.4 4.1 4.4 6.6 1 2.5 1.5 5.1 1.5 7.8v7.7c.1 3-2.1 5.2-4.9 5.2zM40 41.1c-1.3 0-2.7-.1-4-.4-4-.8-7.6-2.7-10.4-5.6-2.9-2.9-4.8-6.5-5.6-10.4-.8-4-.4-8 1.2-11.7 1.5-3.7 4.1-6.9 7.5-9.1 7.9-5.3 19-4.2 25.7 2.5 3.8 3.8 6 9 6 14.4 0 4-1.2 7.9-3.4 11.3-2.2 3.3-5.4 5.9-9.1 7.5-2.6 1-5.2 1.5-7.9 1.5zm0-30.8c-2.1 0-4.1.6-5.8 1.8-1.7 1.1-3 2.8-3.8 4.7-.8 1.9-1 4-.6 6s1.4 3.9 2.8 5.3c1.5 1.5 3.3 2.4 5.3 2.8 2 .4 4.1.2 6-.6 1.9-.8 3.5-2.1 4.7-3.8 1.2-1.7 1.8-3.7 1.8-5.8 0-2.8-1.1-5.4-3-7.4-2-1.9-4.6-3-7.4-3z"/></symbol><symbol id="youtube" viewBox="0 0 80 80"><path d="M39.5 23.5c-.1-.1-.1-.2-.2-.3-.2-.2-.5-.3-.7-.3-.3 0-.5.1-.7.2v.1l-.2.2c0 .1-.1.2-.1.4V31c0 .2 0 .3.1.5.1.3.3.5.7.6h.2c.7 0 1.1-.4 1.1-1.2v-7.1c-.1-.1-.1-.2-.2-.3zm0 0c-.1-.1-.1-.2-.2-.3-.2-.2-.5-.3-.7-.3-.3 0-.5.1-.7.2v.1l-.2.2c0 .1-.1.2-.1.4V31c0 .2 0 .3.1.5.1.3.3.5.7.6h.2c.7 0 1.1-.4 1.1-1.2v-7.1c-.1-.1-.1-.2-.2-.3zm.1-.1c-.1-.1-.1-.2-.2-.3-.2-.2-.5-.3-.7-.3-.3 0-.5.1-.7.2l-.1.1v.1l-.2.2c0 .1-.1.2-.1.4V31c0 .2 0 .3.1.5 0 .4.3.5.7.6h.2c.7 0 1.1-.4 1.1-1.2v-7.1c0-.1 0-.3-.1-.4zm0 0c-.1-.1-.1-.2-.2-.3-.2-.2-.5-.3-.7-.3-.3 0-.5.1-.7.2l-.1.1v.1l-.2.2c0 .1-.1.2-.1.4V31c0 .2 0 .3.1.5 0 .4.3.5.7.6h.2c.7 0 1.1-.4 1.1-1.2v-7.1c0-.1 0-.3-.1-.4zm0 0c-.1-.1-.1-.2-.2-.3-.2-.2-.5-.3-.7-.3-.3 0-.5.1-.7.2l-.1.1v.1l-.2.2c0 .1-.1.2-.1.4V31c0 .2 0 .3.1.5 0 .4.3.5.7.6h.2c.7 0 1.1-.4 1.1-1.2v-7.1c0-.1 0-.3-.1-.4zm0 0c-.1-.1-.1-.2-.2-.3-.2-.2-.5-.3-.7-.3-.3 0-.5.1-.7.2l-.1.1v.1l-.2.2c0 .1-.1.2-.1.4V31c0 .2 0 .3.1.5 0 .4.3.5.7.6h.2c.7 0 1.1-.4 1.1-1.2v-7.1c0-.1 0-.3-.1-.4zm0 0c-.1-.1-.1-.2-.2-.3-.2-.2-.5-.3-.7-.3-.3 0-.5.1-.7.2l-.1.1v.1l-.2.2c0 .1-.1.2-.1.4V31c0 .2 0 .3.1.5 0 .4.3.5.7.6h.2c.7 0 1.1-.4 1.1-1.2v-7.1c0-.1 0-.3-.1-.4zm0 0c-.1-.1-.1-.2-.2-.3-.2-.2-.5-.3-.7-.3-.3 0-.5.1-.7.2l-.1.1v.1l-.2.2c0 .1-.1.2-.1.4V31c0 .2 0 .3.1.5 0 .4.3.5.7.6h.2c.7 0 1.1-.4 1.1-1.2v-7.1c0-.1 0-.3-.1-.4zM40 1.3C18.2 1.3.5 18.6.5 40S18.2 78.7 40 78.7 79.5 61.4 79.5 40 61.8 1.3 40 1.3zm-2.3 30.2c0 .4.3.5.7.6h.2c.7 0 1.1-.4 1.1-1.2v-7.1c0-.1 0-.3-.1-.4-.1-.1-.1-.2-.2-.3-.2-.2-.5-.3-.7-.3-.3 0-.5.1-.7.2l-.1.1v.1l-.2.2c0 .1-.1.2-.1.4V31c0 .2 0 .3.1.5zm1.9-8.1c-.1-.1-.1-.2-.2-.3-.2-.2-.5-.3-.7-.3-.3 0-.5.1-.7.2l-.1.1v.1l-.2.2c0 .1-.1.2-.1.4V31c0 .2 0 .3.1.5 0 .4.3.5.7.6h.2c.7 0 1.1-.4 1.1-1.2v-7.1c0-.1 0-.3-.1-.4zm0 0c-.1-.1-.1-.2-.2-.3-.2-.2-.5-.3-.7-.3-.3 0-.5.1-.7.2l-.1.1v.1l-.2.2c0 .1-.1.2-.1.4V31c0 .2 0 .3.1.5 0 .4.3.5.7.6h.2c.7 0 1.1-.4 1.1-1.2v-7.1c0-.1 0-.3-.1-.4zm0 0c-.1-.1-.1-.2-.2-.3-.2-.2-.5-.3-.7-.3-.3 0-.5.1-.7.2l-.1.1v.1l-.2.2c0 .1-.1.2-.1.4V31c0 .2 0 .3.1.5 0 .4.3.5.7.6h.2c.7 0 1.1-.4 1.1-1.2v-7.1c0-.1 0-.3-.1-.4zm0 0c-.1-.1-.1-.2-.2-.3-.2-.2-.5-.3-.7-.3-.3 0-.5.1-.7.2l-.1.1v.1l-.2.2c0 .1-.1.2-.1.4V31c0 .2 0 .3.1.5 0 .4.3.5.7.6h.2c.7 0 1.1-.4 1.1-1.2v-7.1c0-.1 0-.3-.1-.4zm0 0c-.1-.1-.1-.2-.2-.3-.2-.2-.5-.3-.7-.3-.3 0-.5.1-.7.2l-.1.1v.1l-.2.2c0 .1-.1.2-.1.4V31c0 .2 0 .3.1.5 0 .4.3.5.7.6h.2c.7 0 1.1-.4 1.1-1.2v-7.1c0-.1 0-.3-.1-.4zm0 0c-.1-.1-.1-.2-.2-.3-.2-.2-.5-.3-.7-.3-.3 0-.5.1-.7.2l-.1.1v.1l-.1.1c0 .1-.1.2-.1.4v7.2c0 .2-.1.4 0 .6 0 .4.3.5.7.6h.2c.7 0 1.1-.4 1.1-1.2v-7.1c0-.1 0-.3-.1-.4z"/><path fill="#FFF" d="M59.7 43.3c-.1-1.5-.7-2.9-1.8-4-1-1.1-2.5-1.7-4-1.7-3.1-.1-7.8-.2-14-.2s-10.8 0-13.9.2c-1.5 0-2.9.7-4 1.7-1.1 1.1-1.7 2.5-1.8 4-.2 3.3-.3 5.8-.3 7.5s.1 4.2.3 7.5c.1 1.5.8 2.9 1.8 4s2.5 1.7 4 1.7c3 .2 7.7.3 13.9.2 6.3 0 10.9 0 14-.2 1.5 0 2.9-.6 4-1.7 1.1-1 1.7-2.5 1.8-4 .1-2.7.2-5.2.2-7.5 0-2.2 0-4.7-.2-7.5zM28.6 59.4h-2.8V44.3H23v-2.5h8.4v2.5h-2.8v15.1zm9.7 0h-2.4V58c-.3.5-.7.9-1.2 1.1-.5.3-1 .5-1.6.5-1.1 0-1.7-.7-1.7-2.2v-11h2.4v10c0 .6.2.9.7.9.3 0 .8-.3 1.4-1v-9.9h2.4v13zm9.3-2.7c0 1.9-.7 2.9-2.2 2.9-.5 0-.9-.1-1.3-.3-.4-.2-.8-.5-1-.8v1h-2.5V41.8h2.5v5.7c.2-.4.5-.7.9-.9.4-.2.8-.3 1.2-.4 1.6 0 2.4 1.1 2.4 3.3v7.2zm9-3.4H52v2.5c0 1.2.4 1.9 1.1 1.9.2 0 .4-.1.6-.2.1-.1.2-.1.2-.2s.1-.2.1-.3c0-.3.1-.5.1-.6v-1.6h2.5v1c0 2.7-1.2 4-3.6 4-.5 0-1 0-1.5-.2s-.9-.5-1.2-.9c-.6-.8-.9-1.9-.9-2.9v-5.9c0-1 .3-2 1-2.7.3-.4.8-.6 1.2-.8.5-.2 1-.3 1.5-.2.5 0 1 0 1.4.2.5.2.9.5 1.2.8.6.8.9 1.8.9 2.8v3.3zM51 21v13h-2.4v-1.4c-.3.5-.7.8-1.2 1.1s-1 .4-1.6.5c-1.1 0-1.7-.7-1.7-2.2V21h2.5v10c0 .6.2.9.6.9.4 0 .9-.3 1.4-1V21H51zm-9.1 1.6c-.1-.4-.4-.8-.7-1.1-.4-.3-.8-.5-1.2-.7s-.8-.2-1.3-.2c-.9 0-1.9.3-2.6.9-.4.3-.6.7-.8 1.2-.2.4-.2.8-.2 1.3v6.5c-.1 1 .3 1.9.9 2.6.4.4.7.6 1.2.8.4.2.9.2 1.4.2s.9 0 1.4-.2c.4-.1.9-.4 1.2-.7s.5-.7.7-1.2c.2-.5.2-.9.2-1.4v-6.7c0-.4 0-.9-.2-1.3zm-2.2 8.3c0 .8-.4 1.2-1.1 1.2h-.2c-.4 0-.6-.2-.7-.6 0-.1-.1-.3-.1-.5v-7.2c0-.2.1-.3.1-.4 0-.1.1-.2.2-.2v-.1l.1-.1c.2-.1.4-.2.7-.2.2 0 .5.1.7.3.1.1.1.2.2.3.1.1.1.3.1.4v7.1zm-4.4-14.5L33 23.2c-.7 2.2-1.1 3.4-1.1 3.5V34h-2.7v-7c0-.4-.1-.8-.2-1.2-.1-.4-.2-.8-.4-1.2-.2-.5-.3-.8-.4-1.1L26 16.4h2.8l1.8 7h.2l1.7-7h2.8z"/><path fill="#FFF" d="M54 49.7v1.4h-2.1v-1.4c0-.9.4-1.4 1.1-1.4.8 0 1.1.5 1 1.4zm-8.9-.1v6.9c0 .7-.3 1.1-.9 1.1-.3 0-.5-.1-.7-.2-.2-.1-.4-.2-.5-.4v-8.1c.2-.2.3-.3.5-.4s.4-.2.6-.2c.7 0 1.1.4 1 1.3z"/></symbol></svg>